# xmcd CD database file
#
# Track frame offsets:
#	150
#	13763
#	28062
#	41682
#	55191
#	69394
#	83454
#	95143
#	108791
#	121240
#	133383
#	147482
#	161100
#	174927
#	189718
#	203026
#
# Disc length: 2882 seconds
#
# Revision: 2
# Processed by: cddbd v1.5.2PL0 Copyright (c) Steve Scherf et al.
# Submitted via: CDex 1.51
#
DISCID=e00b4010
DTITLE=Thelonious Monk - Four in one CD 1
DYEAR=1900
DGENRE=Jazz
TTITLE0=Off Minor
TTITLE1=Round Midnight
TTITLE2=Thelonius
TTITLE3=Well, You Needn't
TTITLE4=Ruby My Dear
TTITLE5=Epistrophy
TTITLE6=Evidence
TTITLE7=Nice Work
TTITLE8=Mysterioso
TTITLE9=Who Knows
TTITLE10=Monk's Mood
TTITLE11=Suburban Eyes
TTITLE12=Evance
TTITLE13=Ask Me Now
TTITLE14=Criss Cross
TTITLE15=Straight No Chaser
EXTD=
EXTT0=
EXTT1=
EXTT2=
EXTT3=
EXTT4=
EXTT5=
EXTT6=
EXTT7=
EXTT8=
EXTT9=
EXTT10=
EXTT11=
EXTT12=
EXTT13=
EXTT14=
EXTT15=
PLAYORDER=
